HIERARCHY
ROOT Hips
{
  OFFSET 55.0751 93.5183 15.261
  CHANNELS 6 Xposition Yposition Zposition Zrotation Xrotation Yrotation
  JOINT spine
  {
    OFFSET 0 7.4756 0.429885
    CHANNELS 3 Zrotation Xrotation Yrotation
    JOINT spine1
    {
      OFFSET 0 9.92301 0
      CHANNELS 3 Zrotation Xrotation Yrotation
      JOINT spine2
      {
        OFFSET 0 9.50804 0
        CHANNELS 3 Zrotation Xrotation Yrotation
        JOINT Neck
        {
          OFFSET 0 24.4111 1.16384
          CHANNELS 3 Zrotation Xrotation Yrotation
          JOINT Head
          {
            OFFSET 0 7.37523 0
            CHANNELS 3 Zrotation Xrotation Yrotation
            End Site
            {
              OFFSET 0 17.8522 -5.88741
            }
          }
        }
        JOINT RightShoulder
        {
          OFFSET -4.00356 10.2679 -0.557468
          CHANNELS 3 Zrotation Xrotation Yrotation
          JOINT RightArm
          {
            OFFSET 0 13.4673 0
            CHANNELS 3 Zrotation Xrotation Yrotation
            JOINT RightArmRoll
            {
              OFFSET 0 6.79858 0
              CHANNELS 3 Zrotation Xrotation Yrotation
              JOINT RightForeArm
              {
                OFFSET 0 19.8018 0
                CHANNELS 3 Zrotation Xrotation Yrotation
                JOINT RightForeArmRoll
                {
                  OFFSET 0 7.62905 0
                  CHANNELS 3 Zrotation Xrotation Yrotation
                  JOINT RightHand
                  {
                    OFFSET 0 15.3098 0
                    CHANNELS 3 Zrotation Xrotation Yrotation
                    End Site
                    {
                      OFFSET 0 0 0
                    }
                  }
                }
              }
            }
          }
        }
        JOINT LeftShoulder
        {
          OFFSET 4.00356 10.2679 -0.557468
          CHANNELS 3 Zrotation Xrotation Yrotation
          JOINT LeftArm
          {
            OFFSET 0 13.4673 0
            CHANNELS 3 Zrotation Xrotation Yrotation
            JOINT LeftArmRoll
            {
              OFFSET 0 6.79858 0
              CHANNELS 3 Zrotation Xrotation Yrotation
              JOINT LeftForeArm
              {
                OFFSET 0 19.8018 0
                CHANNELS 3 Zrotation Xrotation Yrotation
                JOINT LeftForeArmRoll
                {
                  OFFSET 0 7.62906 0
                  CHANNELS 3 Zrotation Xrotation Yrotation
                  JOINT LeftHand
                  {
                    OFFSET 0 15.3098 0
                    CHANNELS 3 Zrotation Xrotation Yrotation
                    End Site
                    {
                      OFFSET 0 0 0
                    }
                  }
                }
              }
            }
          }
        }
      }
    }
  }
  JOINT RightUpLeg
  {
    OFFSET -6.62609 -1.21505 -1.01927
    CHANNELS 3 Zrotation Xrotation Yrotation
    JOINT RightUpLegRoll
    {
      OFFSET 0 17.9517 0
      CHANNELS 3 Zrotation Xrotation Yrotation
      JOINT RightLeg
      {
        OFFSET 0 -22.2304 0
        CHANNELS 3 Zrotation Xrotation Yrotation
        JOINT RightLegRoll
        {
          OFFSET 0 22.3032 0
          CHANNELS 3 Zrotation Xrotation Yrotation
          JOINT RightFoot
          {
            OFFSET 0 18.5636 0
            CHANNELS 3 Zrotation Xrotation Yrotation
            JOINT RightToeBase
            {
              OFFSET 0 15.5183 0
              CHANNELS 3 Zrotation Xrotation Yrotation
              End Site
              {
                OFFSET 0.00657761 7.51539 -0.866263
              }
            }
          }
        }
      }
    }
  }
  JOINT LeftUpLeg
  {
    OFFSET 6.62609 -1.21505 -1.01927
    CHANNELS 3 Zrotation Xrotation Yrotation
    JOINT LeftUpLegRoll
    {
      OFFSET 0 17.9518 0
      CHANNELS 3 Zrotation Xrotation Yrotation
      JOINT LeftLeg
      {
        OFFSET 0 22.2303 0
        CHANNELS 3 Zrotation Xrotation Yrotation
        JOINT LeftLegRoll
        {
          OFFSET 0 22.5093 0
          CHANNELS 3 Zrotation Xrotation Yrotation
          JOINT LeftFoot
          {
            OFFSET 0 18.3575 0
            CHANNELS 3 Zrotation Xrotation Yrotation
            JOINT LeftToeBase
            {
              OFFSET 0 15.5183 0
              CHANNELS 3 Zrotation Xrotation Yrotation
              End Site
              {
                OFFSET -0.029478 7.51538 -0.866263
              }
            }
          }
        }
      }
    }
  }
}
MOTION
Frames: 4
Frame Time: 0.00208333
52.7225 93.3003 11.7816 -0.134021 -1.57972 0.0891826 0.0116968 -1.51935 0.259891 0.0253164 0.964237 0.515767 0.0191431 2.60928 0.515617 -6.47791 11.0095 -1.44708 5.23541 3.67347 -2.7371 70.3462 -1.2263 -1.96558 98.4592 13.49 25.1735 1.29738e-006 -2.83526e-007 -8.15311e-006 2.64318 0.0282902 -1.3579 -5.02385e-006 -1.13669e-006 -3.04434 8.02995 -4.9514 0.697657 -66.7077 -5.97828 4.10581 -102.089 15.1964 -24.765 8.76775e-006 -6.94388e-007 2.62443e-006 1.94422 -0.00435814 0.848128 9.16226e-006 -2.98869e-006 3.02393 -8.03021 -4.9514 -0.697631 178.479 2.14813 0.190614 180 7.01558e-015 178.97 177.16 9.25136 179.817 -5.3236e-007 -4.95797e-006 0.143114 -19.6454 69.2716 20.6649 8.12989 25.233 -3.48492 -179.573 -0.970083 2.96218 4.54188e-006 -4.6773e-006 -1.00681 -2.79876 -5.28105 0.0249758 -2.53518e-006 6.48701e-006 -0.0469891 18.2938 67.5703 -19.1962 -8.14079 25.2324 3.48957 
52.721 93.3203 11.7829 -0.137385 -1.53893 0.0983929 0.0131171 -1.51771 0.259433 0.0283349 0.96753 0.514914 0.0221742 2.61258 0.514711 -6.46649 10.9075 -1.45093 5.23295 3.64254 -2.73134 70.3185 -1.23675 -1.96792 98.4842 13.5233 25.1286 1.29738e-006 -2.83526e-007 -8.15311e-006 2.66839 0.0259146 -1.35146 -5.02385e-006 -1.13669e-006 -3.04308 8.02995 -4.9514 0.697657 -66.6928 -5.996 4.11448 -102.119 15.185 -24.6976 8.76775e-006 -6.94388e-007 2.62443e-006 1.88766 -0.00672909 0.846792 9.16226e-006 -2.98869e-006 3.02283 -8.03021 -4.9514 -0.697631 178.48 2.17968 0.183738 180 7.01558e-015 178.97 177.163 9.24486 179.816 -5.3236e-007 -4.95797e-006 0.143172 -19.6442 69.2703 20.6628 8.12989 25.233 -3.48492 -179.571 -0.935547 2.96297 4.54188e-006 -4.6773e-006 -1.00657 -2.80029 -5.27349 0.0251549 -2.53518e-006 6.48701e-006 -0.0469891 18.2941 67.5706 -19.1965 -8.14079 25.2324 3.48957 
52.7173 93.3138 11.7847 -0.140861 -1.49821 0.10751 0.0145528 -1.51615 0.258986 0.0314009 0.970659 0.514095 0.0252524 2.6157 0.513838 -6.45511 10.8054 -1.45492 5.23054 3.61093 -2.72569 70.2904 -1.24723 -1.97024 98.5097 13.5563 25.0848 1.29738e-006 -2.83526e-007 -8.15311e-006 2.69299 0.0223806 -1.34496 -5.02385e-006 -1.13669e-006 -3.04182 8.02995 -4.9514 0.697657 -66.6775 -6.01439 4.12348 -102.15 15.1742 -24.6301 8.76775e-006 -6.94388e-007 2.62443e-006 1.83089 -0.0102565 0.84542 9.16226e-006 -2.98869e-006 3.02172 -8.03021 -4.9514 -0.697631 178.481 2.21067 0.177056 180 7.01558e-015 178.97 177.166 9.23756 179.814 -5.3236e-007 -4.95797e-006 0.143215 -19.6429 69.2689 20.6607 8.12989 25.233 -3.48492 -179.569 -0.901299 2.96355 4.54188e-006 -4.6773e-006 -1.00634 -2.80198 -5.26537 0.0253221 -2.53518e-006 6.48701e-006 -0.0469891 18.2945 67.5712 -19.197 -8.14079 25.2324 3.48957 
52.7216 93.314 11.7855 -0.144419 -1.45754 0.11656 0.0159993 -1.51464 0.258545 0.0345002 0.973673 0.513298 0.0283638 2.61872 0.512986 -6.44375 10.7034 -1.45901 5.22816 3.57886 -2.72011 70.2621 -1.25772 -1.97254 98.5355 13.589 25.0417 1.29738e-006 -2.83526e-007 -8.15311e-006 2.71717 0.0180357 -1.33843 -5.02385e-006 -1.13669e-006 -3.04055 8.02995 -4.9514 0.697657 -66.662 -6.03325 4.13273 -102.179 15.1636 -24.5625 8.76775e-006 -6.94388e-007 2.62443e-006 1.77399 -0.0145936 0.844024 9.16226e-006 -2.98869e-006 3.02062 -8.03021 -4.9514 -0.697631 178.482 2.24127 0.17051 180 7.01558e-015 178.97 177.168 9.22967 179.813 -5.3236e-007 -4.95797e-006 0.143247 -19.6416 69.2675 20.6585 8.12989 25.233 -3.48492 -179.566 -0.867251 2.96399 4.54188e-006 -4.6773e-006 -1.00614 -2.80377 -5.25686 0.0254811 -2.53518e-006 6.48701e-006 -0.0469891 18.2951 67.5719 -19.1976 -8.14079 25.2324 3.48957 
